<?xml version="1.0" encoding="UTF-8"?>
<svg id="Layer_1" xmlns="http://www.w3.org/2000/svg" version="1.1" viewBox="0 0 1214.08 307.36">
  <!-- Generator: Adobe Illustrator 30.6.0, SVG Export Plug-In . SVG Version: 2.1.4 Build 109)  -->
  <defs>
    <style>
      .st0 {
        fill: #7a9174;
      }
    </style>
  </defs>
  <path class="st0" d="M189.76.06c13.73.3,26.55,7.69,32.79,20.52,1.2,10.38-.21,20.97-4.91,30.21-6.66,7.83-.54,17.71-8.95,19.08-1.63.27-2.15,1.77-2.84,2.27-3.43,2.47-6.37,5.09-10.39,5.46,4.7,1.75,9.03,4.08,12.4,7.67,6.53,6.96,9.37,16.11,7.52,26l-4.08,21.82c-2.2,11.78-9.25,33.15-21.52,34.3-.03,2.53-.02,4.83.74,7.04,14.68-7.73,28.93-13.44,44.35-15.52,21.6-2.91,45.72-2.93,56.44,18.73,3.47,7.02,3.43,14.68,2.16,22.43-4.84,29.65-26,56.76-48.62,76.02-13.92,11.85-29.09,20.5-46.1,25.62-21.91,6.6-45.36,7.71-67.4,1.82-8.78-3.61-17.71-7.24-25.42-12.76-4.88-3.49-9.87-7.01-13.72-11.63-14.22-17.05-21.93-29.79-46.56-38.79-3.48-1.27-6.63-1.2-9.64-1.87-6.97-1.56-14.41-.63-21.38.99,5,2.84,9.14,4.92,12.18,8.54l12.44,14.8c9.59,11.41,21.91,19.17,35.81,23.38,9.39,2.85,19.16,3.9,28.91,4.65.29.88.17,1.83-.4,2.33-.37.32-1.07.59-1.85.74-27.96,5.4-56.27-11.75-72.69-34.84-7.02-9.86-16.41-15.9-29.04-17.38,1.22-3.53,4.1-4.51,6.88-5.53,9.12-3.35,18.66-4.29,27.96-3.89,5.1.22,9.89,2.16,14.91,3.09.8.15,2.17.75,2.9,1.12,9.01,4.58,18.32,8.85,24.62,16.88l1.05-1.01c-3.18-10.59-1.9-22.02.6-33.29,5.61-25.34-5.86-36.65-3.63-38.97,4.36-4.53,38.73,15.83,39.87,54.04.61,20.4-8.92,35.68,7.55,48.22l1.81,1.38,1.85,1.1c13.86,8.25,36.12,4.8,51.62-2.41,2.76-1.28,5.33-2.41,7.92-3.98,24.75-15.02,33.94-32.66,43.1-60.5-10.64,9.07-21.01,16.91-32.52,23.59l-1.91,1.11-1.92,1.09c-21.25,9.13-48.14,6.68-59.19-13.89-3.91-7.28-5.5-15.58-4.57-23.8.52-4.58,1.59-9.28,3.77-13.36l5.85-10.95c3.02-5.65,6.01-10.74,7.77-16.42,3.98-12.87,1.47-17.79-1.92-29.4l-5.02-17.17c-2.2-7.54-2.47-14.73-1.44-22.8-10.89,14.36-10.44,25.48-10.87,41.14l-.2,7.14c-.05,1.65.26,4.22-.22,5.74l-2.16,6.87-4.53,7.09c-.49.77-1.75,2.21-2.53,2.67l-7.88,5.12c-2.39,1.56-7.16.96-10.32,1.05-1.54.54-4.44-1.89-3.24-3.19,4.05-4.35,16.45.5,23.25-16.2,5.93-14.56-.17-31.03,5.32-44.65,5.38-13.35,14.61-24.23,25.68-33.22,5.31-4.31,10.01-8.32,13.68-14.76l-26.68,6.71c-12.98,3.26-16.47,28.55-17.43,43.75-2.19,34.77-20.1,47.72-50.4,60.35-9.84,4.1-14.45,14.35-11.47,24.44,2.47,8.37,7.43,12.45,5.79,17.2-9.42-2-16.93-9.09-19.8-19.14-2.58-9.03-.72-18.94,3.92-26.83,8.65-14.72,29.94-17.83,31.29-42.77-7.03,6.23-13.88,9.95-22.14,10.32-15.67.71-28.16-12.58-26.11-28.69.95-7.5,3.25-13.35,6.13-11.48.52.34.53,3.54,2.7,9.63,1.66,4.66,5.57,8.34,9.88,9.19,5.95,1.17,10.56-1.15,13.93-5.75,8.09-11.05,4.86-25.55,6-33.51l1.7-11.87c2.85-19.86,20.38-31.53,39.64-31.99l17.76-.42c7.59-.18,15.4-4.06,21.35-8.72l6.74-5.28c6.23-6.38,13.2-11.88,21.76-14.89,3.52-1.24,7.89-1.04,11.3-.97ZM145.51,31.3c-15.66,8.28-32.62,1.17-48.33,7.04-9.37,3.51-16.39,10.35-19.13,20-5.62,19.82.33,37.33-9.43,51.41-3.67,5.3-9.14,8.61-14.48,9.23-6.73.79-12.33-1.36-17.18-5.98.58,4.13,2.1,8.33,5.21,11,6.28,5.4,14.95,5.95,23.42,2.8,5.89-2.19,12.2-8.36,13.73-16.2,1.27-6.49.87-12.7.76-19.56-.26-16.9,7.95-33.58,23.48-41.19,9.83-4.82,21.23-5.39,31.8-5.22,1.63.03,2.07,2.24,1.88,3.06-.31,1.35-1.19,2.65-3.32,2.61-17.98-.32-35.55,3.15-43.28,19.68-9.21,19.7-2.33,40.14-6.61,61.3s-20.49,25.47-29.1,34.99c-8.1,8.95-9.07,23.33-2.41,33.34-.48-8.17-2.1-15.24,1.89-21.99,8.44-14.26,26.63-13.01,34.54-25.43,15.47-24.3-5.31-53.99,17.23-74.78,6.06-5.59,12.94-9.98,20.49-13.41,8.26-3.76,11.19-14.05,24.1-21.35l10.18-4c1.8-.71,4.47-.81,6.61-1.03,8.63-.89,16.61.72,25.33,1.76s19.04-1.3,23.71-9.59c5.25-9.32-12.61-28.12-32.92-23.92-16.06,3.32-24.8,18.39-38.15,25.45ZM150.52,171.93c.2.27-.01.64-.19.72l-6.32,10.64c-1.24,2.09-2.41,4.09-2.29,6.13-.63.29-1.42.9-1.82,1.57-5.41,9.23-6.78,20.27-3.6,30.31,4.83,15.26,21.54,24.82,36.8,22.25,11.22-1.89,21.78-6.83,30.79-13.08,18.81-13.06,28.56-24.18,43.67-37.71l2.82-2.52c7.26,5.43-5.21,11.67-10.65,19.68-4.3,6.33-6.21,14.02-9.23,20.99-1.74,4.02-3.09,8.53-5.25,12.69-4.45,8.55-9.68,16.4-15.85,23.1s-13.26,11.74-21.26,16.83c-18.73,11.91-42.41,14.47-63.09,6.68-12.85-4.84-19.18-16.81-17.35-30.09,2.71-19.71,4.45-35.35-6.55-53.13-4.32-6.99-8.6-13.22-16.64-17.42,2.78,12.8,1.28,24.08-1.13,35.9-7.4,36.28,21.11,65.82,56.22,74.07,16.34,3.84,31.77,3.56,47.98-.61s31.97-10.65,45.5-20.57c5.58-4.09,10.92-8.67,16.58-13.4,7-5.85,12.14-13.06,17.61-20.45,8.33-11.26,14.87-23.28,18.25-36.39,2.12-8.2,3.58-17.05,1.07-25.39-6.8-22.58-37.05-22.89-59.67-15.72-9.03,2.86-22.15,6.6-29.32,10.63l-8.39,4.71-22.25,12.89c-1.03.6-2.68,1.02-3.42.75-1.82-.66-.56-2.82-1-3.56,10.74-10.8,24.81-11.26,21.92-22.46-.43-1.67-.15-4.82-1.88-6.6-7.53-7.73-15.22-15.35-20.17-24.62-4.23-7.91-12.4-22.58-10-24.66.77-.67,3.28-.46,3.97.74,9.81,17.1,16.14,33.8,33.77,46.56,1.96,1.12,5.18-3.18,6.12-4.95,9.08-17,13.6-35.8,13.3-55.14-.12-7.63-5.26-13.23-11.65-16.18-2.96-1.37-5.66-3.07-9.14-1.44,3.87,1.47,9.11,1.87,11.65,5.93.94,1.51-2.89,2.92-4.83,2.92,3.98,2.98,8.74,4.29,10.54,9.34,1.35,3.79.05,8.27-1.66,11.92-4.04,8.62-8.08,16.73-11.3,25.71-.92,2.55-2.08,4.94-4.06,6.69-7.89-12.09-13.29-24.62-18.51-37.75-1.88-4.73-3.62-9.38-6.57-13.53l-6.33-5.39c10.29-8.7,15.17,12.25,20.23,22.56l10.75,21.89,4.95-11.18c3.03-6.85-8.28-12.64-16.83-27.63-8.76-15.36.24-30.6,5.55-30.67,3.24-.05,5.35,6.25,10.49,7.22,4.46.85,9.12-4.92,15.14-9.42,1.44-2.2-.11-6.93,1.36-9.51,2.5-4.38,5.17-7.64,6.56-12.97-6.01,3.4-11.36,4.85-18.03,5.56-10.37,1.1-21.23,5.56-27.2,14.41-4.61,6.83-8.3,14.14-15.44,18.82-9.25,6.06-14.7,16.36-12.22,27.75l4.05,18.62c6.1,16.62,9.92,30.61,3.4,46.96ZM181.72,43.47c-15.41-2.73-32,2.96-42.2,16.76,16.09-1.18,29.2-7.84,42.2-16.76ZM186.99,89.01c-1.16-1.72-6.74-1.62-5.8-5.95.72-3.32,4.64-4.59,8.62-5.54-3.64-2.16-5.2-3.47-8.06-6.49-8.06,20.22,5.83,28.36,16.32,43.65,1.6-2.89,4.14-7.1,2.68-10.24-2.74-5.91-12.5-6.38-13.77-15.43ZM123.67,72.34c-15.1,5.49-24.16,19.05-23.56,33.84l.69,16.94c.37,9.15-.79,17.11-3.47,26.22,25.33-21.46,10.58-51.5,26.34-77.01ZM78.55,252.92l-.85.89c.82,1.12,1.9-.29.85-.89Z"/>
  <g>
    <path class="st0" d="M431.56,90.79c-7.95,6.28-16.39,11.76-25.31,16.44-8.92,4.68-18.39,8.45-28.42,11.33,5.08.13,10.64.39,16.69.75,6.05.37,12.26,1.05,18.64,2.06,6.38,1,12.79,2.44,19.24,4.31,6.45,1.87,12.64,4.38,18.59,7.52,4.21,2.21,7.8,4.83,10.77,7.87,2.97,3.04,5.03,6.6,6.16,10.67.53,1.94.52,3.69-.05,5.26-.57,1.57-1.34,2.76-2.31,3.56-.97.8-1.94,1.1-2.91.9-.97-.2-1.62-1.07-1.95-2.61-1-5.01-2.84-9.24-5.51-12.68-2.67-3.44-5.91-6.43-9.72-8.97-5.41-3.54-11.16-6.28-17.24-8.22-6.08-1.94-12.36-3.36-18.84-4.26-6.48-.9-13.11-1.44-19.9-1.6-6.78-.17-13.52-.22-20.2-.15-1.74,5.48-3.31,10.84-4.71,16.09-1.4,5.24-2.54,10.31-3.41,15.19-1.34,7.62-1.82,14.38-1.45,20.3.37,5.91,1.72,10.88,4.06,14.88,1.14,1.14,1.84,2.21,2.1,3.21.27,1,.23,1.89-.1,2.66-.34.77-.9,1.32-1.7,1.65-.8.33-1.69.4-2.66.2-.97-.2-1.95-.75-2.96-1.65-1-.9-1.9-2.22-2.71-3.96-.8-1.6-1.35-3.74-1.65-6.41-.3-2.67-.37-5.78-.2-9.32.17-3.54.57-7.47,1.2-11.78.63-4.31,1.45-8.9,2.46-13.78,1.74-8.49,3.91-17.57,6.51-27.26-4.08.13-8.09.13-12.03,0-1.94,0-3.39-.37-4.36-1.1-.97-.73-1.52-1.6-1.65-2.61-.13-1,.05-2.04.55-3.11.5-1.07,1.22-1.95,2.16-2.66.93-.7,1.99-1.14,3.16-1.3,1.17-.17,2.39.15,3.66.95,1.67.74,3.39,1.25,5.16,1.55,1.77.3,3.62.49,5.56.55,2.41-8.35,5.04-16.87,7.92-25.56,2.87-8.69,5.86-17.21,8.97-25.56,3.11-8.35,6.3-16.39,9.57-24.1,3.27-7.72,6.48-14.85,9.62-21.4,1.07-2.21,2.46-3.67,4.16-4.41,1.7-.73,3.17-.83,4.41-.3,1.24.54,2,1.69,2.31,3.46.3,1.77-.42,4.06-2.15,6.87-.07.27-.72,1.69-1.95,4.26-1.24,2.57-2.87,6-4.91,10.27-2.04,4.28-4.39,9.27-7.07,14.98-2.67,5.71-5.45,11.89-8.32,18.54-2.87,6.65-5.76,13.6-8.67,20.85-2.91,7.25-5.63,14.52-8.17,21.8,5.01-.53,10.12-1.75,15.33-3.66s10.29-4.14,15.23-6.72c4.94-2.57,9.59-5.31,13.93-8.22,4.34-2.91,8.15-5.63,11.43-8.17,3.94-3.07,8.07-6.58,12.38-10.52,4.31-3.94,8.54-8.07,12.68-12.38,4.14-4.31,8.12-8.65,11.93-13.03,3.81-4.38,7.18-8.54,10.12-12.48,2.94-3.94,5.35-7.53,7.22-10.77,1.87-3.24,2.97-5.86,3.31-7.87.27-1.6.8-2.84,1.6-3.71.8-.87,1.69-1.44,2.66-1.7.97-.27,1.94-.23,2.91.1.97.33,1.72.94,2.26,1.8.53.87.77,1.97.7,3.31-.07,1.34-.64,2.87-1.7,4.61-1.27,2.14-3.12,4.76-5.56,7.87-2.44,3.11-5.3,6.53-8.57,10.27-3.27,3.74-6.87,7.69-10.77,11.83-3.91,4.14-7.95,8.29-12.13,12.43-4.18,4.14-8.44,8.17-12.78,12.08-4.34,3.91-8.55,7.5-12.63,10.77Z"/>
    <path class="st0" d="M494.4,106.93c-.74.6-1.69,1.67-2.86,3.21-1.17,1.54-2.49,3.24-3.96,5.11-1.47,1.87-3.07,3.76-4.81,5.66-1.74,1.9-3.53,3.54-5.36,4.91-1.84,1.37-3.71,2.32-5.61,2.86-1.9.54-3.76.34-5.56-.6-1.6-.8-2.66-2.17-3.16-4.11-.5-1.94-.62-3.94-.35-6.01.47-4.14,1.79-7.98,3.96-11.53,2.17-3.54,4.88-6.56,8.12-9.07,3.24-2.51,6.87-4.36,10.88-5.56,4.01-1.2,8.12-1.5,12.33-.9,2.54.33,4.91,1.12,7.12,2.36,2.21,1.24,3.87,3.06,5.01,5.46.53,1.14.63,2.04.3,2.71-.34.67-.85,1.07-1.55,1.2-.7.13-1.47-.05-2.31-.55-.84-.5-1.49-1.35-1.95-2.56-.94-1.74-2.1-3.06-3.51-3.96-1.4-.9-2.91-1.42-4.51-1.55-2.07-.2-4.18.19-6.31,1.15-2.14.97-4.18,2.31-6.11,4.01-1.94,1.7-3.71,3.66-5.31,5.86-1.6,2.21-2.87,4.44-3.81,6.72-.2.47-.45,1.1-.75,1.9-.3.8-.55,1.65-.75,2.56-.2.9-.32,1.77-.35,2.61-.03.84.12,1.49.45,1.95.27.4.92.27,1.95-.4,1.04-.67,2.26-1.62,3.66-2.86,1.4-1.24,2.89-2.66,4.46-4.26,1.57-1.6,3.07-3.14,4.51-4.61,1.44-1.47,2.69-2.77,3.76-3.91,1.07-1.14,1.77-1.87,2.1-2.2,1.2-1.14,2.41-1.89,3.61-2.26,1.2-.37,2.26-.42,3.16-.15.9.27,1.57.8,2,1.6.43.8.48,1.74.15,2.81-1.14,3.41-1.84,6.35-2.1,8.82-.27,2.47-.2,4.53.2,6.16.4,1.64,1.1,2.92,2.1,3.86,1,.94,2.21,1.57,3.61,1.9,2.41.54,5.26.32,8.57-.65,3.31-.97,6.65-2.39,10.02-4.26,3.37-1.87,6.56-3.97,9.57-6.31,3.01-2.34,5.41-4.58,7.22-6.72.67-.94,1.4-1.54,2.21-1.8.8-.27,1.45-.27,1.95,0,.5.27.72.79.65,1.55-.07.77-.6,1.69-1.6,2.76-2.21,2.61-4.86,5.18-7.97,7.72-3.11,2.54-6.46,4.75-10.07,6.62-3.61,1.87-7.33,3.31-11.18,4.31-3.84,1-7.6,1.3-11.28.9-3.01-.27-5.51-1.08-7.52-2.46-2-1.37-3.46-3.07-4.36-5.11-.9-2.04-1.25-4.34-1.05-6.92.2-2.57,1-5.23,2.41-7.97ZM510.34,69.04c.73.27,1.27.79,1.6,1.55.33.77.48,1.62.45,2.56-.03.94-.24,1.9-.6,2.91-.37,1-.85,1.87-1.45,2.61-2.54,2.81-4.61,4.76-6.21,5.86-1.6,1.1-2.77,1.59-3.51,1.45-.74-.13-1.05-.77-.95-1.9.1-1.14.57-2.52,1.4-4.16.83-1.64,2.04-3.42,3.61-5.36,1.57-1.94,3.46-3.77,5.66-5.51Z"/>
    <path class="st0" d="M499.82,67.54c2.14.33,4.19.6,6.16.8,1.97.2,3.93.37,5.86.5,6.68.34,13.38.3,20.1-.1,6.72-.4,13.45-.97,20.2-1.7,1.6-5.41,3.31-10.62,5.11-15.64s3.64-9.69,5.51-14.03c1.87-4.34,3.77-8.3,5.71-11.88,1.94-3.57,3.91-6.63,5.91-9.17,1.4-1.87,3.02-3.24,4.86-4.11,1.84-.87,3.52-1.1,5.06-.7,1.54.4,2.77,1.47,3.71,3.21.94,1.74,1.24,4.24.9,7.52-.34,2.87-1.07,6.01-2.21,9.42-1.14,3.41-2.54,6.97-4.21,10.67-1.67,3.71-3.56,7.5-5.66,11.38-2.1,3.88-4.26,7.72-6.46,11.53,4.01-.4,8.37-.83,13.08-1.3,4.71-.47,9.54-.85,14.48-1.15,4.94-.3,9.87-.47,14.78-.5,4.91-.03,9.57.18,13.98.65,4.21.54,8.05,1.32,11.53,2.36,3.47,1.04,6.38,2.49,8.72,4.36.87.74,1.15,1.55.85,2.46-.3.9-.89,1.6-1.75,2.1-.87.5-1.84.64-2.91.4-1.07-.23-1.94-1.08-2.61-2.56-.94-2.14-2.69-3.76-5.26-4.86s-5.66-1.85-9.27-2.25c-3.95-.4-8.37-.48-13.28-.25-4.91.24-9.94.62-15.08,1.15-5.15.54-10.24,1.17-15.29,1.9-5.05.74-9.67,1.34-13.88,1.8-.2.07-.44.1-.7.1-2.14,3.41-4.21,6.68-6.21,9.82-2,3.14-3.88,6.05-5.61,8.72-1.14,2.87-2.36,6.21-3.66,10.02-1.3,3.81-2.59,7.89-3.86,12.23-1.27,4.34-2.46,8.85-3.56,13.53-1.1,4.68-2.07,9.29-2.91,13.83-.83,4.54-1.49,8.9-1.95,13.08-.47,4.18-.63,7.97-.5,11.38.13,5.35,1,9.72,2.61,13.13,1.6,3.41,4.11,6.08,7.52,8.02,1.2.73,1.82,1.54,1.85,2.41.03.87-.35,1.57-1.15,2.1-.8.53-1.89.74-3.26.6-1.37-.13-2.82-.9-4.36-2.3-2.14-2.14-3.76-5.23-4.86-9.27-1.1-4.04-1.72-8.77-1.85-14.18-.2-5.61.03-12.04.7-19.29.67-7.25,1.67-14.88,3.01-22.9,1.34-8.02,2.96-16.25,4.86-24.71,1.9-8.45,4.02-16.69,6.36-24.71-6.15.4-12.33.67-18.54.8-6.21.13-12.56.03-19.04-.3-3.74-.13-7.1-.37-10.07-.7-2.97-.33-5.43-.77-7.37-1.3-1.2-.6-1.87-1.37-2-2.31-.13-.94.07-1.69.6-2.25.54-.57,1.3-.73,2.31-.5,1,.23,2,1.22,3.01,2.96ZM562.06,70.25c-.27,0-.54.02-.8.05-.27.03-.54.05-.8.05-.27.8-.5,1.6-.7,2.41-.2.8-.4,1.6-.6,2.41l2.91-4.91ZM573.38,36.47c-2.27,4.21-4.39,8.84-6.36,13.88-1.97,5.05-3.76,10.27-5.36,15.69l2.91-.3c2.61-4.61,5.14-9.3,7.62-14.08,2.47-4.78,4.61-9.4,6.42-13.88,1.8-4.21,2.92-7.33,3.36-9.37.43-2.04.35-3.09-.25-3.16-.6-.07-1.64.87-3.11,2.81-1.47,1.94-3.21,4.75-5.21,8.42Z"/>
    <path class="st0" d="M571.28,102.52c1.2-1.14,2.41-1.89,3.61-2.26,1.2-.37,2.26-.42,3.16-.15.9.27,1.57.8,2,1.6.43.8.48,1.74.15,2.81-1.14,3.41-1.84,6.35-2.1,8.82-.27,2.47-.2,4.53.2,6.16.4,1.64,1.1,2.92,2.1,3.86,1,.94,2.21,1.57,3.61,1.9,2.41.54,5.26.32,8.57-.65,3.31-.97,6.65-2.39,10.02-4.26,3.37-1.87,6.56-3.97,9.57-6.31,3.01-2.34,5.41-4.58,7.22-6.72.67-.94,1.4-1.54,2.21-1.8.8-.27,1.45-.27,1.96,0,.5.27.72.79.65,1.55-.07.77-.6,1.69-1.6,2.76-2.21,2.61-4.86,5.18-7.97,7.72-3.11,2.54-6.46,4.75-10.07,6.62-3.61,1.87-7.33,3.31-11.18,4.31-3.84,1-7.6,1.3-11.28.9-3.01-.27-5.53-1.32-7.57-3.16-2.04-1.84-3.53-4.06-4.46-6.67s-1.32-5.41-1.15-8.42c.17-3.01.95-5.88,2.36-8.62ZM575.49,89.69c.27-1.14.78-2.17,1.55-3.11.77-.93,1.6-1.7,2.51-2.31.9-.6,1.79-.95,2.66-1.05.87-.1,1.52.13,1.95.7.43.57.58,1.52.45,2.86-.13,1.34-.74,3.14-1.8,5.41-.6,1-1.4,1.69-2.41,2.05-1,.37-1.92.45-2.76.25-.84-.2-1.5-.7-2-1.5-.5-.8-.55-1.9-.15-3.31Z"/>
    <path class="st0" d="M647.55,106.93c-.74.6-1.69,1.67-2.86,3.21-1.17,1.54-2.49,3.24-3.96,5.11-1.47,1.87-3.07,3.76-4.81,5.66-1.74,1.9-3.53,3.54-5.36,4.91-1.84,1.37-3.71,2.32-5.61,2.86-1.9.54-3.76.34-5.56-.6-1.6-.8-2.66-2.17-3.16-4.11-.5-1.94-.62-3.94-.35-6.01.47-4.14,1.79-7.98,3.96-11.53,2.17-3.54,4.88-6.56,8.12-9.07,3.24-2.51,6.87-4.36,10.88-5.56,4.01-1.2,8.12-1.5,12.33-.9,2.54.33,4.91,1.12,7.12,2.36,2.21,1.24,3.87,3.06,5.01,5.46.53,1.14.63,2.04.3,2.71-.33.67-.85,1.07-1.55,1.2-.7.13-1.47-.05-2.31-.55-.84-.5-1.49-1.35-1.95-2.56-.94-1.74-2.11-3.06-3.51-3.96-1.4-.9-2.91-1.42-4.51-1.55-2.07-.2-4.18.19-6.31,1.15-2.14.97-4.18,2.31-6.11,4.01-1.94,1.7-3.71,3.66-5.31,5.86s-2.87,4.44-3.81,6.72c-.2.47-.45,1.1-.75,1.9-.3.8-.55,1.65-.75,2.56-.2.9-.32,1.77-.35,2.61-.03.84.12,1.49.45,1.95.27.4.92.27,1.95-.4,1.04-.67,2.26-1.62,3.66-2.86,1.4-1.24,2.89-2.66,4.46-4.26,1.57-1.6,3.07-3.14,4.51-4.61,1.44-1.47,2.69-2.77,3.76-3.91,1.07-1.14,1.77-1.87,2.11-2.2,1.2-1.14,2.41-1.89,3.61-2.26,1.2-.37,2.25-.42,3.16-.15.9.27,1.57.8,2,1.6.43.8.48,1.74.15,2.81-1.14,3.41-1.84,6.35-2.1,8.82-.27,2.47-.2,4.53.2,6.16.4,1.64,1.1,2.92,2.11,3.86,1,.94,2.21,1.57,3.61,1.9,2.41.54,5.26.32,8.57-.65,3.31-.97,6.65-2.39,10.02-4.26,3.37-1.87,6.57-3.97,9.57-6.31,3.01-2.34,5.41-4.58,7.22-6.72.67-.94,1.4-1.54,2.21-1.8.8-.27,1.45-.27,1.95,0,.5.27.72.79.65,1.55-.07.77-.6,1.69-1.6,2.76-2.21,2.61-4.86,5.18-7.97,7.72-3.11,2.54-6.46,4.75-10.07,6.62-3.61,1.87-7.33,3.31-11.18,4.31-3.84,1-7.6,1.3-11.28.9-3.01-.27-5.51-1.08-7.52-2.46-2-1.37-3.46-3.07-4.36-5.11-.9-2.04-1.25-4.34-1.05-6.92.2-2.57,1-5.23,2.41-7.97Z"/>
    <path class="st0" d="M783.86,34.26c2.21-2.67,4.64-5.36,7.32-8.07,2.67-2.71,5.56-5.14,8.67-7.32,3.11-2.17,6.38-3.99,9.82-5.46,3.44-1.47,7.07-2.31,10.87-2.51,3.01-.2,5.86.22,8.57,1.25,2.71,1.04,5.01,2.72,6.92,5.06,1.9,2.34,3.27,5.35,4.11,9.02.83,3.68.92,8.05.25,13.13-.4,2.81-.94,5.66-1.6,8.57s-1.44,5.66-2.3,8.27c-.87,2.61-1.8,4.98-2.81,7.12-1,2.14-2.04,3.84-3.11,5.11-1.94,2.34-3.71,3.66-5.31,3.96-1.6.3-2.86.05-3.76-.75s-1.3-1.95-1.2-3.46.95-2.96,2.55-4.36c1.61-1,3.16-2.34,4.66-4.01,1.5-1.67,2.89-3.56,4.16-5.66s2.36-4.33,3.26-6.67c.9-2.34,1.59-4.71,2.05-7.12.73-4.07.73-7.63,0-10.67-.74-3.04-1.97-5.56-3.71-7.57-1.74-2-3.91-3.46-6.52-4.36-2.61-.9-5.41-1.25-8.42-1.05-3.47.27-6.75,1.1-9.82,2.51-3.07,1.4-6,3.19-8.77,5.36-2.77,2.17-5.4,4.59-7.87,7.27-2.47,2.67-4.81,5.41-7.02,8.22-3.81,4.81-7.77,10.46-11.88,16.94-4.11,6.48-8.02,13.45-11.73,20.9-3.71,7.45-7.08,15.22-10.12,23.3-3.04,8.09-5.43,16.15-7.17,24.21-1.74,8.05-2.66,15.94-2.76,23.65-.1,7.72.95,14.88,3.16,21.5,1.13,3.54,2.56,6.58,4.26,9.12,1.7,2.54,3.61,4.61,5.71,6.21s4.36,2.81,6.77,3.61,4.91,1.24,7.52,1.3c3.27.13,6.68-.24,10.22-1.1,3.54-.87,7.12-2.12,10.72-3.76,3.61-1.64,7.18-3.56,10.72-5.76,3.54-2.21,6.95-4.61,10.22-7.22,5.75-4.48,11.38-9.39,16.89-14.73,5.51-5.35,10.74-10.76,15.69-16.24,5.95-6.55,11.21-12.88,15.79-18.99,4.58-6.11,8.23-11.34,10.98-15.69.8-1.34,1.59-2.14,2.36-2.41.77-.27,1.35-.18,1.75.25.4.44.55,1.17.45,2.21-.1,1.04-.62,2.16-1.55,3.36-3.54,5.21-7.55,10.74-12.03,16.59-4.48,5.85-9.32,11.78-14.53,17.79-5.41,6.28-11.08,12.31-16.99,18.09-5.91,5.78-12.01,10.94-18.29,15.49-3.01,2.41-6.23,4.63-9.67,6.67-3.44,2.04-6.98,3.77-10.62,5.21-3.64,1.44-7.32,2.57-11.03,3.41-3.71.83-7.37,1.25-10.98,1.25-6.21.07-11.89-1.17-17.04-3.71-5.15-2.54-9.49-6.71-13.03-12.53-2.81-4.48-4.63-9.59-5.46-15.34-.83-5.75-.94-11.86-.3-18.34.63-6.48,1.92-13.21,3.86-20.2,1.94-6.98,4.29-13.96,7.07-20.95,2.77-6.98,5.86-13.86,9.27-20.65,3.41-6.78,6.88-13.21,10.42-19.29,3.54-6.08,7.07-11.68,10.57-16.79s6.77-9.5,9.77-13.18Z"/>
    <path class="st0" d="M898.03,106.93c-.74.6-1.69,1.67-2.86,3.21-1.17,1.54-2.49,3.24-3.96,5.11-1.47,1.87-3.07,3.76-4.81,5.66-1.74,1.9-3.53,3.54-5.36,4.91-1.84,1.37-3.71,2.32-5.61,2.86-1.9.54-3.76.34-5.56-.6-1.6-.8-2.66-2.17-3.16-4.11-.5-1.94-.62-3.94-.35-6.01.47-4.14,1.79-7.98,3.96-11.53,2.17-3.54,4.88-6.56,8.12-9.07s6.87-4.36,10.88-5.56c4.01-1.2,8.12-1.5,12.33-.9,2.54.33,4.91,1.12,7.12,2.36,2.21,1.24,3.88,3.06,5.01,5.46.53,1.14.63,2.04.3,2.71-.34.67-.85,1.07-1.55,1.2-.7.13-1.47-.05-2.31-.55-.84-.5-1.49-1.35-1.95-2.56-.94-1.74-2.11-3.06-3.51-3.96-1.4-.9-2.91-1.42-4.51-1.55-2.07-.2-4.18.19-6.31,1.15-2.14.97-4.18,2.31-6.11,4.01-1.94,1.7-3.71,3.66-5.31,5.86s-2.88,4.44-3.81,6.72c-.2.47-.45,1.1-.75,1.9-.3.8-.55,1.65-.75,2.56-.2.9-.32,1.77-.35,2.61-.03.84.12,1.49.45,1.95.27.4.92.27,1.96-.4,1.04-.67,2.26-1.62,3.66-2.86,1.4-1.24,2.89-2.66,4.46-4.26,1.57-1.6,3.07-3.14,4.51-4.61,1.44-1.47,2.69-2.77,3.76-3.91,1.07-1.14,1.77-1.87,2.11-2.2,1.2-1.14,2.41-1.89,3.61-2.26,1.2-.37,2.25-.42,3.16-.15.9.27,1.57.8,2,1.6.44.8.48,1.74.15,2.81-1.14,3.41-1.84,6.35-2.1,8.82-.27,2.47-.2,4.53.2,6.16.4,1.64,1.1,2.92,2.11,3.86,1,.94,2.21,1.57,3.61,1.9,2.41.54,5.26.32,8.57-.65,3.31-.97,6.65-2.39,10.02-4.26,3.37-1.87,6.56-3.97,9.57-6.31,3.01-2.34,5.41-4.58,7.22-6.72.67-.94,1.4-1.54,2.21-1.8.8-.27,1.45-.27,1.95,0,.5.27.72.79.65,1.55-.07.77-.6,1.69-1.6,2.76-2.21,2.61-4.86,5.18-7.97,7.72-3.11,2.54-6.46,4.75-10.07,6.62-3.61,1.87-7.33,3.31-11.18,4.31-3.84,1-7.6,1.3-11.28.9-3.01-.27-5.51-1.08-7.52-2.46-2.01-1.37-3.46-3.07-4.36-5.11-.9-2.04-1.25-4.34-1.05-6.92.2-2.57,1-5.23,2.41-7.97Z"/>
    <path class="st0" d="M1007.98,109.84c-1,1.27-2.3,2.87-3.91,4.81-1.6,1.94-3.44,4.01-5.51,6.21s-4.33,4.44-6.76,6.72c-2.44,2.27-4.96,4.39-7.57,6.36-2.61,1.97-5.28,3.66-8.02,5.06-2.74,1.4-5.45,2.34-8.12,2.81-2.41.4-4.83.3-7.27-.3-2.44-.6-4.49-1.97-6.16-4.11-1.27-1.8-1.99-3.81-2.15-6.01-.17-2.21,0-4.41.5-6.62.5-2.21,1.24-4.33,2.21-6.36.97-2.04,2.02-3.79,3.16-5.26-1.34.2-2.71.17-4.11-.1-1.4-.27-2.72-.72-3.96-1.35-1.24-.63-2.32-1.44-3.26-2.41-.94-.97-1.54-2.09-1.8-3.36-.27-1.34-.06-2.86.6-4.56.67-1.7,1.97-3.16,3.91-4.36.73-.4,1.49-.63,2.25-.7.77-.07,1.47,0,2.11.2.63.2,1.17.52,1.6.95.43.44.68.95.75,1.55.13.6.02,1.12-.35,1.55-.37.44-.8.84-1.3,1.2-.5.37-.95.69-1.35.95-.4.27-.57.5-.5.7.13.67.63,1.29,1.5,1.85.87.57,1.87,1.12,3.01,1.65,1.13.54,2.27,1.04,3.41,1.5,1.13.47,2.04.9,2.71,1.3,1.54,1,2.52,2.12,2.96,3.36.44,1.24.52,2.54.25,3.91-.27,1.37-.75,2.77-1.45,4.21-.7,1.44-1.44,2.87-2.21,4.31-.77,1.44-1.44,2.82-2.01,4.16-.57,1.34-.85,2.57-.85,3.71s.28,2.04.85,2.71c.57.67,1.29,1.15,2.16,1.45.87.3,1.84.43,2.91.4,1.07-.03,2.07-.15,3.01-.35,2.21-.53,4.49-1.5,6.87-2.91,2.37-1.4,4.73-3.06,7.07-4.96,2.34-1.9,4.61-3.96,6.81-6.16,2.21-2.21,4.24-4.34,6.12-6.42,1.87-2.07,3.56-3.97,5.06-5.71,1.5-1.74,2.72-3.11,3.66-4.11.8-.87,1.6-1.42,2.41-1.65.8-.23,1.44-.23,1.9,0,.47.23.65.72.55,1.45-.1.74-.65,1.64-1.65,2.71Z"/>
    <path class="st0" d="M1001.26,119.36c.07-2.21.5-4.53,1.3-6.97.8-2.44,1.9-4.84,3.31-7.22,1.4-2.37,3.04-4.56,4.91-6.56,1.87-2,3.91-3.67,6.12-5.01,2.21-1.34,4.56-2.21,7.07-2.61s5.03-.17,7.57.7c1.74-7.62,3.59-14.82,5.56-21.6,1.97-6.78,3.96-12.86,5.96-18.24,2-5.38,3.96-9.96,5.86-13.73,1.9-3.77,3.72-6.5,5.46-8.17,1.54-1.8,3.21-3.14,5.01-4.01,1.8-.87,3.47-1.15,5.01-.85s2.76,1.29,3.66,2.96c.9,1.67,1.22,4.14.95,7.42-.27,2.94-.95,6.21-2.05,9.82-1.1,3.61-2.49,7.37-4.16,11.28-1.67,3.91-3.56,7.9-5.66,11.98-2.11,4.08-4.28,8.1-6.52,12.08-2.24,3.98-4.46,7.78-6.66,11.43-2.21,3.64-4.28,7-6.21,10.07-1.67,4.34-3.22,8.97-4.66,13.88-1.44,4.91-2.67,9.92-3.71,15.03-1.04,5.11-1.81,10.29-2.31,15.54-.51,5.25-.62,10.41-.34,15.49.27,5.35,1.25,9.72,2.96,13.13,1.7,3.41,4.29,6.01,7.77,7.82,1.2.67,1.82,1.44,1.85,2.31.03.87-.33,1.59-1.1,2.16-.77.57-1.84.8-3.21.7-1.37-.1-2.82-.82-4.36-2.16-2.21-2.07-3.91-5.11-5.11-9.12-1.2-4.01-1.97-8.72-2.31-14.13-.47-7.22-.29-15.19.53-23.91.82-8.72,2.01-17.66,3.58-26.81-1.29,2.07-2.76,4.28-4.38,6.62-1.62,2.34-3.36,4.43-5.19,6.26-1.84,1.84-3.78,3.21-5.81,4.11-2.04.9-4.12.92-6.26.05-1.67-.67-2.84-1.94-3.51-3.81-.67-1.87-.97-3.84-.9-5.91ZM1030.43,95.91c-1.94-1.07-3.84-1.09-5.71-.05-1.87,1.04-3.61,2.51-5.21,4.41s-2.97,3.99-4.11,6.26c-1.14,2.27-1.94,4.11-2.41,5.51-.2.47-.4,1.12-.6,1.95-.2.84-.37,1.7-.5,2.61-.13.9-.17,1.77-.1,2.61.06.84.27,1.49.6,1.95.4.47,1.25.08,2.56-1.15,1.3-1.24,2.82-3.06,4.56-5.46,1.74-2.41,3.59-5.23,5.56-8.47,1.97-3.24,3.76-6.63,5.36-10.17ZM1053.78,50.1c-2.81,5.41-5.31,11.54-7.52,18.39-2.21,6.85-4.14,13.75-5.81,20.7,1.61-2.87,3.26-5.9,4.96-9.07,1.7-3.17,3.37-6.38,5.01-9.62,1.63-3.24,3.19-6.5,4.66-9.77,1.47-3.27,2.81-6.41,4.01-9.42,1.67-4.28,2.71-7.45,3.11-9.52.4-2.07.3-3.12-.3-3.16-.6-.03-1.62.92-3.06,2.86-1.44,1.94-3.12,4.81-5.06,8.62Z"/>
    <path class="st0" d="M1052.98,130.59c-.67-1.34-1.09-2.82-1.25-4.46-.17-1.64-.17-3.29,0-4.96.17-1.67.5-3.32,1-4.96.5-1.64,1.09-3.16,1.75-4.56,1.27-2.61,2.92-4.98,4.96-7.12,2.04-2.14,4.33-3.87,6.87-5.21,2.54-1.34,5.28-2.21,8.22-2.61,2.94-.4,5.95-.17,9.02.7.87.6,1.29,1.24,1.25,1.9-.03.67-.33,1.22-.9,1.65-.57.44-1.32.67-2.25.7-.94.03-1.84-.25-2.71-.85-2-1-3.81-1.29-5.41-.85-1.6.44-3.06,1.34-4.36,2.71-1.3,1.37-2.42,3.07-3.36,5.11-.94,2.04-1.69,4.16-2.26,6.36-.57,2.21-.99,4.34-1.25,6.41-.27,2.07-.37,3.81-.3,5.21.13,1.74.7,2.79,1.7,3.16,1,.37,2.21-.15,3.61-1.55.87-.87,1.71-1.99,2.51-3.36.8-1.37,1.49-2.79,2.05-4.26.57-1.47,1.04-2.86,1.4-4.16.37-1.3.58-2.35.65-3.16-2.07-.67-3.51-1.49-4.31-2.46-.8-.97-1.17-1.92-1.1-2.86.07-.94.43-1.74,1.1-2.41.67-.67,1.44-1.04,2.3-1.1.87-.07,1.74.3,2.61,1.1.87.8,1.54,2.21,2.01,4.21,2.14.33,4.46.52,6.96.55,2.51.03,5.03-.02,7.57-.15,2.54-.13,5.03-.37,7.47-.7,2.44-.33,4.69-.77,6.77-1.3,2.34-.6,3.89-.75,4.66-.45.77.3,1.09.75.95,1.35-.13.6-.59,1.24-1.35,1.9-.77.67-1.49,1.07-2.15,1.2-2.14.54-4.46.99-6.97,1.35-2.51.37-5.1.62-7.77.75-2.67.13-5.33.17-7.97.1-2.64-.07-5.13-.27-7.47-.6,0,1.47-.19,3.06-.55,4.76-.37,1.7-.87,3.41-1.5,5.11-.64,1.7-1.44,3.34-2.41,4.91-.97,1.57-2.09,2.92-3.36,4.06-1.07,1-2.39,1.82-3.96,2.46-1.57.64-3.14.95-4.71.95s-3.06-.37-4.46-1.1c-1.4-.73-2.51-1.9-3.31-3.51Z"/>
    <path class="st0" d="M1163.23,110.54c-1.74,1-3.81,2.22-6.21,3.66-2.41,1.44-5,3.01-7.77,4.71-2.77,1.7-5.71,3.53-8.82,5.46-3.11,1.94-6.23,3.98-9.37,6.11,2.94,4.21,3.98,8.75,3.11,13.63-.87,4.88-3.01,9.92-6.41,15.13-1.8,2.74-3.89,5.35-6.26,7.82-2.37,2.47-4.85,4.66-7.42,6.57s-5.15,3.42-7.72,4.56c-2.57,1.14-4.96,1.7-7.17,1.7-1.87,0-3.59-.23-5.16-.7-1.57-.47-2.91-1.19-4.01-2.15-1.1-.97-1.9-2.21-2.41-3.71-.5-1.5-.62-3.29-.35-5.36.4-3.01,1.7-6.15,3.91-9.42,2.21-3.27,4.98-6.56,8.32-9.87,3.34-3.31,7.12-6.6,11.33-9.87,4.21-3.27,8.55-6.42,13.03-9.42-1.54-1.47-3.43-2.82-5.66-4.06-2.24-1.24-4.36-2.56-6.37-3.96-2-1.4-3.69-3.01-5.06-4.81-1.37-1.8-1.99-4.08-1.86-6.82.13-2.54.89-4.93,2.26-7.17,1.37-2.24,3.11-4.12,5.21-5.66,2.1-1.54,4.46-2.66,7.07-3.36,2.61-.7,5.21-.75,7.82-.15,1.6.33,2.82.89,3.66,1.65.84.77,1.37,1.57,1.61,2.41.23.84.18,1.64-.15,2.41-.34.77-.85,1.34-1.55,1.7-.7.37-1.57.5-2.61.4-1.04-.1-2.12-.65-3.26-1.65-1.74-1.47-3.41-2.26-5.01-2.36-1.6-.1-3.01.28-4.21,1.15-1.2.87-2.14,2.12-2.81,3.76-.67,1.64-.9,3.46-.7,5.46.2,2,.87,3.84,2,5.51,1.13,1.67,2.49,3.24,4.06,4.71,1.57,1.47,3.21,2.87,4.91,4.21,1.7,1.34,3.26,2.64,4.66,3.91,6.21-4.08,12.19-7.78,17.94-11.13,5.75-3.34,10.59-6.08,14.53-8.22,1.14-.67,2.16-1.02,3.06-1.05.9-.03,1.54.15,1.91.55.37.4.42.95.15,1.65s-1,1.39-2.21,2.05ZM1126.95,137.5c.2-1.47.1-2.81-.3-4.01-4.14,2.87-8.15,5.8-12.03,8.77-3.88,2.97-7.38,5.9-10.52,8.77-3.14,2.87-5.78,5.66-7.92,8.37s-3.54,5.19-4.21,7.47c-.33,1.14-.43,2.22-.3,3.26.13,1.04.48,1.87,1.05,2.51.57.63,1.34,1.05,2.31,1.25.97.2,2.09.03,3.36-.5,1.34-.54,2.79-1.37,4.36-2.51,1.57-1.14,3.17-2.46,4.81-3.96,1.64-1.5,3.27-3.16,4.91-4.96,1.64-1.8,3.19-3.71,4.66-5.71,3.01-4.14,5.31-7.73,6.92-10.77,1.6-3.04,2.57-5.7,2.91-7.97Z"/>
    <path class="st0" d="M1156.11,130.59c-.67-1.34-1.08-2.82-1.25-4.46-.17-1.64-.17-3.29,0-4.96.17-1.67.5-3.32,1-4.96.5-1.64,1.09-3.16,1.75-4.56,1.27-2.61,2.92-4.98,4.96-7.12,2.04-2.14,4.33-3.87,6.87-5.21,2.54-1.34,5.28-2.21,8.22-2.61,2.94-.4,5.95-.17,9.02.7.87.6,1.29,1.24,1.25,1.9-.04.67-.34,1.22-.9,1.65-.57.44-1.32.67-2.26.7-.94.03-1.84-.25-2.71-.85-2.01-1-3.81-1.29-5.41-.85-1.61.44-3.06,1.34-4.36,2.71-1.3,1.37-2.42,3.07-3.36,5.11-.94,2.04-1.69,4.16-2.26,6.36s-.99,4.34-1.25,6.41c-.27,2.07-.37,3.81-.3,5.21.13,1.74.7,2.79,1.7,3.16,1,.37,2.21-.15,3.61-1.55.87-.87,1.7-1.99,2.51-3.36.8-1.37,1.49-2.79,2.05-4.26.57-1.47,1.04-2.86,1.4-4.16.37-1.3.58-2.35.65-3.16-2.07-.67-3.51-1.49-4.31-2.46-.8-.97-1.17-1.92-1.1-2.86.06-.94.43-1.74,1.1-2.41.67-.67,1.44-1.04,2.3-1.1.87-.07,1.74.3,2.61,1.1.87.8,1.54,2.21,2,4.21,2.14.33,4.46.52,6.97.55,2.51.03,5.03-.02,7.57-.15,2.54-.13,5.03-.37,7.47-.7,2.44-.33,4.7-.77,6.77-1.3,2.34-.6,3.89-.75,4.66-.45.77.3,1.08.75.95,1.35-.13.6-.59,1.24-1.35,1.9-.77.67-1.49,1.07-2.15,1.2-2.14.54-4.46.99-6.97,1.35-2.51.37-5.1.62-7.77.75-2.67.13-5.33.17-7.97.1-2.64-.07-5.13-.27-7.47-.6,0,1.47-.18,3.06-.55,4.76-.37,1.7-.87,3.41-1.5,5.11s-1.44,3.34-2.4,4.91c-.97,1.57-2.09,2.92-3.36,4.06-1.07,1-2.39,1.82-3.96,2.46-1.57.64-3.14.95-4.71.95s-3.06-.37-4.46-1.1c-1.4-.73-2.51-1.9-3.31-3.51Z"/>
  </g>
  <g>
    <path d="M362.46,259.39c1.78-2.92,3.92-5.12,6.4-6.59,2.48-1.47,4.76-2.21,6.83-2.21,2.92,0,5.54,1.26,7.86,3.77,2.32,2.51,3.48,6.33,3.48,11.44,0,4.04-.77,7.64-2.31,10.82-1.54,3.17-3.6,5.68-6.19,7.51-2.59,1.84-5.78,2.75-9.57,2.75-1.1,0-2.76-.11-4.99-.33-.35-.04-.85-.09-1.52-.15v13.54h-5.78v-48.37h5.78v7.82ZM362.46,266.29v14.94c2.11.53,4.05.79,5.81.79,3.51,0,6.46-1.37,8.87-4.12,2.4-2.75,3.6-6.51,3.6-11.3,0-3.47-.65-6.08-1.96-7.83-1.31-1.75-2.79-2.63-4.46-2.63-1.81,0-3.8.92-5.98,2.75-2.18,1.84-4.14,4.31-5.89,7.41Z"/>
    <path d="M418.19,284.58v-6.18c2.33,1.52,4.8,2.59,7.39,3.21,2.6.62,4.81.93,6.63.93,2.92,0,5.02-.47,6.31-1.41,1.29-.94,1.93-2.12,1.93-3.54,0-.93-.29-1.73-.88-2.4-.61-.67-2.11-1.49-4.5-2.46l-2.01-.82-4.02-1.58c-4.32-1.68-7.05-3.25-8.18-4.69-1.14-1.42-1.7-3.14-1.7-5.17,0-2.88,1.1-5.24,3.32-7.09,2.21-1.85,5.81-2.77,10.8-2.77,3.71,0,7.23.54,10.56,1.61v5.26c-3.83-1.36-7.43-2.04-10.8-2.04-2.45,0-4.37.43-5.75,1.29-1.38.86-2.07,1.93-2.07,3.21s.6,2.26,1.79,3.01c1.2.75,3.13,1.61,5.81,2.59l3.92,1.43c3.61,1.32,6.15,2.75,7.61,4.29,1.44,1.54,2.16,3.46,2.16,5.75,0,3.02-1.16,5.51-3.47,7.45-2.31,1.95-6.02,2.92-11.13,2.92-4.44,0-9.02-.93-13.72-2.8Z"/>
    <path d="M488.26,286.4v-30h-9.67v-4.84h15.49v30h9.71v4.84h-15.52ZM487.29,238.97c0-1.3.45-2.27,1.34-2.92s1.73-.97,2.53-.97,1.66.32,2.56.97c.89.65,1.34,1.62,1.34,2.92s-.45,2.27-1.34,2.92c-.89.65-1.74.97-2.56.97s-1.63-.32-2.53-.97c-.89-.65-1.34-1.62-1.34-2.92Z"/>
    <path d="M568.52,285.4c-3.89,1.32-7.6,1.98-11.1,1.98s-6.62-.81-9.32-2.42-4.82-3.8-6.34-6.56c-1.52-2.76-2.28-5.89-2.28-9.4,0-5.29,1.72-9.68,5.17-13.17,3.45-3.49,7.61-5.23,12.47-5.23,3.59,0,7.39.68,11.41,2.04v5.57c-4.06-1.84-7.69-2.77-10.89-2.77-2.13,0-4.13.52-5.99,1.57-1.87,1.04-3.31,2.68-4.34,4.91-1.02,2.23-1.54,4.52-1.54,6.88,0,3.12.98,6.11,2.95,8.96s5.05,4.27,9.25,4.27c1.28,0,2.53-.09,3.76-.26,1.23-.17,3.49-.82,6.8-1.93v5.57Z"/>
    <path d="M614.24,287.38c-4.99,0-8.98-1.74-11.99-5.23-3-3.49-4.5-7.88-4.5-13.17s1.5-9.71,4.5-13.17c3-3.47,7-5.2,11.99-5.2s8.95,1.73,11.94,5.2c2.99,3.47,4.49,7.86,4.49,13.17s-1.5,9.68-4.49,13.17c-2.99,3.49-6.97,5.23-11.94,5.23ZM614.24,282.54c3.08,0,5.54-1.21,7.38-3.62,1.83-2.41,2.75-5.73,2.75-9.95s-.92-7.5-2.75-9.92c-1.84-2.41-4.29-3.62-7.38-3.62s-5.6,1.21-7.44,3.62c-1.84,2.41-2.75,5.72-2.75,9.92s.92,7.54,2.75,9.95c1.84,2.41,4.31,3.62,7.44,3.62Z"/>
    <path d="M689.72,285c-2.74,1.14-4.72,1.81-5.95,2.04s-2.41.33-3.54.33c-2.43,0-4.66-.47-6.68-1.4-2.02-.93-3.54-2.32-4.56-4.15-1.02-1.83-1.54-4.67-1.54-8.5v-14.03h-8.73v-4.84h8.73v-14.03h5.78v14.03h15.52v4.84h-15.52v13.93c0,2.82.33,4.81,1,5.96.67,1.16,1.56,2,2.68,2.54s2.42.81,3.92.81c2.82,0,5.78-.88,8.88-2.65v5.11Z"/>
    <path d="M750.27,284.09c-4.64,2.21-9.04,3.32-13.17,3.32-3.14,0-5.95-.78-8.43-2.34s-4.46-3.79-5.95-6.69c-1.49-2.9-2.24-6-2.24-9.31s.71-6.24,2.13-9.17c1.42-2.93,3.4-5.21,5.93-6.84s5.37-2.45,8.49-2.45c4.14,0,7.46,1.48,9.96,4.43s3.76,7.51,3.76,13.67v1.25h-24.04c0,2.41.51,4.61,1.52,6.6,1.01,1.99,2.34,3.48,3.99,4.49s3.51,1.51,5.6,1.51c3.75,0,7.9-1.25,12.44-3.74v5.29ZM727.08,265.59h17.37v-.85c0-2.84-.7-5.1-2.1-6.78s-3.25-2.53-5.57-2.53-4.39.86-6.12,2.57c-1.72,1.71-2.92,4.24-3.59,7.59Z"/>
    <path d="M784.92,286.4v-34.83h5.81v7.61c1.8-2.88,3.88-5.03,6.22-6.45,2.34-1.42,4.94-2.13,7.8-2.13,2.11,0,4.22.32,6.33.97v12.56h-5.6v-7.97c-.97-.16-1.74-.24-2.31-.24-2.15,0-4.27.85-6.36,2.56-2.09,1.7-4.12,4.27-6.08,7.7v20.23h-5.81Z"/>
    <path d="M865.57,278.58c-1.79,2.9-3.92,5.09-6.4,6.57s-4.76,2.22-6.83,2.22c-2.92,0-5.54-1.26-7.85-3.77-2.31-2.51-3.47-6.34-3.47-11.47,0-4.04.77-7.64,2.3-10.8s3.59-5.67,6.18-7.51c2.59-1.85,5.78-2.77,9.57-2.77,1.12,0,2.78.12,4.99.37.34.04.85.09,1.52.15h5.81v24.61c0,4.2.44,7.61,1.31,10.22h-6.05c-.45-1.91-.8-4.51-1.07-7.82ZM865.57,271.68v-14.94c-2.07-.55-3.98-.82-5.75-.82-3.57,0-6.54,1.38-8.93,4.15-2.38,2.77-3.58,6.54-3.58,11.3,0,3.45.65,6.05,1.95,7.8,1.3,1.75,2.78,2.63,4.44,2.63,1.81,0,3.8-.91,5.98-2.74s4.14-4.29,5.89-7.39Z"/>
    <path d="M908.71,259.39c1.78-2.92,3.92-5.12,6.4-6.59,2.48-1.47,4.76-2.21,6.83-2.21,2.92,0,5.54,1.26,7.86,3.77s3.48,6.33,3.48,11.44c0,4.04-.77,7.64-2.31,10.82-1.54,3.17-3.61,5.68-6.19,7.51-2.59,1.84-5.78,2.75-9.57,2.75-1.1,0-2.76-.11-4.99-.33-.34-.04-.85-.09-1.52-.15v13.54h-5.78v-48.37h5.78v7.82ZM908.71,266.29v14.94c2.11.53,4.04.79,5.81.79,3.51,0,6.46-1.37,8.87-4.12,2.4-2.75,3.61-6.51,3.61-11.3,0-3.47-.65-6.08-1.96-7.83-1.31-1.75-2.79-2.63-4.46-2.63-1.81,0-3.8.92-5.98,2.75-2.18,1.84-4.14,4.31-5.89,7.41Z"/>
    <path d="M993.04,284.09c-4.64,2.21-9.04,3.32-13.17,3.32-3.14,0-5.95-.78-8.43-2.34s-4.46-3.79-5.95-6.69c-1.49-2.9-2.24-6-2.24-9.31s.71-6.24,2.13-9.17c1.42-2.93,3.4-5.21,5.93-6.84s5.37-2.45,8.49-2.45c4.14,0,7.46,1.48,9.96,4.43,2.5,2.95,3.76,7.51,3.76,13.67v1.25h-24.04c0,2.41.51,4.61,1.52,6.6,1.01,1.99,2.34,3.48,3.98,4.49s3.51,1.51,5.6,1.51c3.75,0,7.9-1.25,12.44-3.74v5.29ZM969.86,265.59h17.37v-.85c0-2.84-.7-5.1-2.1-6.78-1.4-1.68-3.25-2.53-5.57-2.53s-4.39.86-6.12,2.57c-1.72,1.71-2.92,4.24-3.59,7.59Z"/>
    <path d="M1053.41,251.57v34.83h-5.78v-7.64c-1.88,2.86-3.97,5.01-6.25,6.45-2.28,1.44-4.57,2.16-6.86,2.16-2.05,0-3.92-.55-5.61-1.64-1.69-1.1-2.87-2.53-3.53-4.31-.66-1.77-.99-5.25-.99-10.42v-19.44h5.78v20.17c0,3.35.16,5.56.49,6.63.32,1.08.92,1.95,1.78,2.63.86.68,1.79,1.02,2.78,1.02,2.05,0,4.24-.96,6.59-2.88,2.34-1.92,4.29-4.35,5.83-7.29v-20.29h5.78Z"/>
    <path d="M1114.59,285c-2.74,1.14-4.72,1.81-5.95,2.04-1.23.22-2.41.33-3.54.33-2.43,0-4.66-.47-6.68-1.4-2.02-.93-3.54-2.32-4.56-4.15-1.02-1.83-1.54-4.67-1.54-8.5v-14.03h-8.73v-4.84h8.73v-14.03h5.78v14.03h15.52v4.84h-15.52v13.93c0,2.82.33,4.81,1,5.96.67,1.16,1.56,2,2.68,2.54s2.42.81,3.92.81c2.82,0,5.78-.88,8.88-2.65v5.11Z"/>
    <path d="M1169.04,278.58c-1.79,2.9-3.92,5.09-6.4,6.57s-4.76,2.22-6.83,2.22c-2.92,0-5.54-1.26-7.85-3.77-2.31-2.51-3.47-6.34-3.47-11.47,0-4.04.77-7.64,2.3-10.8s3.59-5.67,6.18-7.51c2.59-1.85,5.78-2.77,9.57-2.77,1.12,0,2.78.12,4.99.37.34.04.85.09,1.52.15h5.81v24.61c0,4.2.44,7.61,1.31,10.22h-6.05c-.45-1.91-.8-4.51-1.07-7.82ZM1169.04,271.68v-14.94c-2.07-.55-3.98-.82-5.75-.82-3.57,0-6.54,1.38-8.93,4.15-2.38,2.77-3.58,6.54-3.58,11.3,0,3.45.65,6.05,1.95,7.8,1.3,1.75,2.78,2.63,4.44,2.63,1.81,0,3.8-.91,5.98-2.74s4.14-4.29,5.89-7.39Z"/>
  </g>
</svg>